<?xml version="1.0" encoding="UTF-8"?>
<svg version="1.1" xmlns="http://www.w3.org/2000/svg" width="64" height="64">
<path d="M0 0 C1.09981294 3.73589612 0.73237769 5.55137792 -0.75 9.1875 C-1.09546875 10.06792969 -1.4409375 10.94835938 -1.796875 11.85546875 C-3 14 -3 14 -6 15 C-5.34 15.66 -4.68 16.32 -4 17 C-8.93654267 25.50765864 -8.93654267 25.50765864 -13.375 27.5625 C-14.24125 27.706875 -15.1075 27.85125 -16 28 C-16 28.66 -16 29.32 -16 30 C-16.94101562 30.39832031 -17.88203125 30.79664062 -18.8515625 31.20703125 C-20.109417 31.74208876 -21.36722714 32.27725058 -22.625 32.8125 C-23.24246094 33.07353516 -23.85992187 33.33457031 -24.49609375 33.60351562 C-26.33680578 34.38824023 -28.16848068 35.19405306 -30 36 C-31.06605469 36.44601563 -32.13210937 36.89203125 -33.23046875 37.3515625 C-36.55849378 39.33241802 -37.77868953 41.22096932 -39.6875 44.5625 C-42.72138229 49.81425486 -42.72138229 49.81425486 -46 52 C-46.99 52 -47.98 52 -49 52 C-43.70748058 37.84440977 -32.54345235 26.3935257 -21 17 C-27.5669569 20.21361721 -34.65759376 25.31518753 -38 32 C-38.66 32 -39.32 32 -40 32 C-37.92077598 23.42776063 -35.12301895 14.6035494 -27.54296875 9.4453125 C-22.35669023 6.37860718 -16.76432944 4.82156836 -11 3.1875 C-9.93910156 2.87619141 -8.87820312 2.56488281 -7.78515625 2.24414062 C-5.19305553 1.48519222 -2.59827451 0.73747777 0 0 Z " fill="#000000" transform="translate(57,6)"/>
<path d="M0 0 C0 1.32 0 2.64 0 4 C-2.97 4 -5.94 4 -9 4 C-9 4.66 -9 5.32 -9 6 C-8.37351562 6.13277344 -7.74703125 6.26554687 -7.1015625 6.40234375 C-6.28429687 6.57894531 -5.46703125 6.75554688 -4.625 6.9375 C-3.81289063 7.11152344 -3.00078125 7.28554688 -2.1640625 7.46484375 C-0 8 -0 8 2 9 C2 10.98 2 12.96 2 15 C-3.15160675 17.52769839 -6.8419838 18.36334959 -12.68359375 18.29296875 C-13.38396255 18.28872391 -14.08433136 18.28447906 -14.80592346 18.28010559 C-17.01686 18.26347156 -19.22684457 18.2258518 -21.4375 18.1875 C-22.94725235 18.17243326 -24.45701916 18.15874836 -25.96679688 18.14648438 C-29.64483434 18.11361921 -33.32232407 18.06194582 -37 18 C-37 17.01 -37 16.02 -37 15 C-33.60530335 14.24942144 -30.38282186 13.84145673 -26.91015625 13.71875 C-25.48606445 13.66267578 -25.48606445 13.66267578 -24.03320312 13.60546875 C-23.05287109 13.57066406 -22.07253906 13.53585938 -21.0625 13.5 C-12.48475861 13.22251756 -12.48475861 13.22251756 -4 12 C-7.3 10.35 -10.6 8.7 -14 7 C-13 2 -13 2 -12 1 C-7.96497918 0.30163101 -4.09439083 -0.12407245 0 0 Z " fill="#000000" transform="translate(54,41)"/>
</svg>
