<?xml version="1.0" encoding="UTF-8"?>
<svg version="1.1" xmlns="http://www.w3.org/2000/svg" width="67" height="67">
<path d="M0 0 C0.05392397 2.77109307 0.09363455 5.54113818 0.125 8.3125 C0.14175781 9.09818359 0.15851563 9.88386719 0.17578125 10.69335938 C0.18544922 11.8293457 0.18544922 11.8293457 0.1953125 12.98828125 C0.21102295 14.03302612 0.21102295 14.03302612 0.22705078 15.09887695 C0 17 0 17 -2 20 C-1.505 20.99 -1.505 20.99 -1 22 C-3.33333333 24.33333333 -5.66666667 26.66666667 -8 29 C-6.68 29.33 -5.36 29.66 -4 30 C-5.50635465 34.21779303 -8.24012422 35.7747674 -12 38 C-12.99 38.33 -13.98 38.66 -15 39 C-13.02 39 -11.04 39 -9 39 C-10.44386582 42.71279784 -12.12236392 43.9486443 -15.625 45.75 C-16.44226562 46.17796875 -17.25953125 46.6059375 -18.1015625 47.046875 C-18.72804687 47.36140625 -19.35453125 47.6759375 -20 48 C-19.34 48.66 -18.68 49.32 -18 50 C-19.24735567 50.6509259 -20.49801832 51.29551669 -21.75 51.9375 C-22.44609375 52.29714844 -23.1421875 52.65679687 -23.859375 53.02734375 C-28.12493381 54.96552649 -31.82173144 55.13572997 -36.5 55.125 C-37.6240625 55.12757812 -38.748125 55.13015625 -39.90625 55.1328125 C-43 55 -43 55 -44.99560547 54.36108398 C-47.33873852 53.70087627 -47.33873852 53.70087627 -50.1640625 56.08984375 C-51.32792188 57.0265114 -52.4812943 57.97632769 -53.625 58.9375 C-59.77861446 64 -59.77861446 64 -62 64 C-60.03725771 48.98767381 -37.67975048 32.95223173 -26.79321289 23.57714844 C-24.23657281 21.32855825 -21.87899496 18.93632014 -19.5 16.5 C-15.6924741 12.63415169 -11.78581155 8.95390615 -7.65234375 5.4375 C-5.82680518 3.88914975 -5.82680518 3.88914975 -3.625 1.5625 C-2 0 -2 0 0 0 Z " fill="#2A2928" transform="translate(65,1)"/>
</svg>
